<svg id="图层_1" data-name="图层 1" xmlns="http://www.w3.org/2000/svg" viewBox="0 0 3189.32 1278.13"><defs><style>.cls-1{fill:#2e2459;}.cls-2{fill:#f7931a;}.cls-3{fill:#a72145;}.cls-4{fill:#0b7262;}</style></defs><title>世朝阳 logo 定稿</title><path class="cls-1" d="M196.18,349.29a67.54,67.54,0,1,1,67.54-67.54A67.62,67.62,0,0,1,196.18,349.29Zm0-124.08a56.54,56.54,0,1,0,56.54,56.54A56.6,56.6,0,0,0,196.18,225.21Z"/><rect class="cls-1" x="239.19" y="222.06" width="49.38" height="11" transform="translate(-84.56 224.99) rotate(-40.35)"/><path class="cls-1" d="M308,228.08a35.5,35.5,0,1,1,35.49-35.5A35.55,35.55,0,0,1,308,228.08Zm0-60a24.5,24.5,0,1,0,24.49,24.49A24.52,24.52,0,0,0,308,168.09Z"/><path class="cls-2" d="M186.51,632.64a86.35,86.35,0,1,1,86.35-86.35A86.45,86.45,0,0,1,186.51,632.64Zm0-161.7a75.35,75.35,0,1,0,75.35,75.35A75.43,75.43,0,0,0,186.51,470.94Z"/><path class="cls-1" d="M581,546.83a47.49,47.49,0,1,1,47.48-47.48A47.54,47.54,0,0,1,581,546.83Zm0-84a36.49,36.49,0,1,0,36.48,36.49A36.53,36.53,0,0,0,581,462.86Z"/><path class="cls-1" d="M262.32,758a46.46,46.46,0,1,1,46.46-46.46A46.52,46.52,0,0,1,262.32,758Zm0-81.92a35.46,35.46,0,1,0,35.46,35.46A35.5,35.5,0,0,0,262.32,676.1Z"/><path class="cls-1" d="M275.23,1089.16c-76.66,0-139-62.38-139-139s62.38-139,139-139,139,62.37,139,139S351.9,1089.16,275.23,1089.16Zm0-267.08a128,128,0,1,0,128,128A128.18,128.18,0,0,0,275.23,822.08Z"/><path class="cls-3" d="M536.9,989.7a35,35,0,1,1,35-35A35,35,0,0,1,536.9,989.7Zm0-58.91a24,24,0,1,0,24,24A24,24,0,0,0,536.9,930.79Z"/><path class="cls-4" d="M766.14,1023.91c-76.47,0-138.68-62.22-138.68-138.69s62.21-138.68,138.68-138.68,138.68,62.21,138.68,138.68S842.61,1023.91,766.14,1023.91Zm0-266.37A127.69,127.69,0,1,0,893.82,885.22,127.83,127.83,0,0,0,766.14,757.54Z"/><path class="cls-2" d="M1403.08,1157.09c-76.47,0-138.68-62.21-138.68-138.68s62.21-138.69,138.68-138.69,138.69,62.22,138.69,138.69S1479.55,1157.09,1403.08,1157.09Zm0-266.37a127.69,127.69,0,1,0,127.69,127.69A127.83,127.83,0,0,0,1403.08,890.72Z"/><path class="cls-2" d="M1765.61,383.64c-76.47,0-138.68-62.21-138.68-138.68s62.21-138.68,138.68-138.68S1904.3,168.49,1904.3,245,1842.08,383.64,1765.61,383.64Zm0-266.36A127.68,127.68,0,1,0,1893.3,245,127.83,127.83,0,0,0,1765.61,117.28Z"/><path class="cls-3" d="M2712.22,1030.77c-76.47,0-138.68-62.22-138.68-138.69s62.21-138.68,138.68-138.68,138.68,62.21,138.68,138.68S2788.69,1030.77,2712.22,1030.77Zm0-266.37A127.69,127.69,0,1,0,2839.9,892.08,127.83,127.83,0,0,0,2712.22,764.4Z"/><path class="cls-2" d="M783.8,672.1a34.38,34.38,0,1,1,34.37-34.38A34.42,34.42,0,0,1,783.8,672.1Zm0-57.75a23.38,23.38,0,1,0,23.37,23.37A23.41,23.41,0,0,0,783.8,614.35Z"/><path class="cls-2" d="M794.68,571.58A104.17,104.17,0,1,1,898.85,467.41,104.29,104.29,0,0,1,794.68,571.58Zm0-197.34a93.17,93.17,0,1,0,93.17,93.17A93.27,93.27,0,0,0,794.68,374.24Z"/><path class="cls-1" d="M912,749.41a47,47,0,1,1,47-47A47,47,0,0,1,912,749.41Zm0-82.95a36,36,0,1,0,36,36A36,36,0,0,0,912,666.46Z"/><path class="cls-1" d="M986.38,867.5a34.81,34.81,0,1,1,34.81-34.81A34.85,34.85,0,0,1,986.38,867.5Zm0-58.62a23.81,23.81,0,1,0,23.81,23.81A23.84,23.84,0,0,0,986.38,808.88Z"/><path class="cls-1" d="M1126.27,833.76a105.92,105.92,0,1,1,105.92-105.92A106,106,0,0,1,1126.27,833.76Zm0-200.84a94.92,94.92,0,1,0,94.92,94.92A95,95,0,0,0,1126.27,632.92Z"/><path class="cls-1" d="M1275,873a35.18,35.18,0,1,1,35.17-35.17A35.21,35.21,0,0,1,1275,873Zm0-59.35a24.18,24.18,0,1,0,24.17,24.18A24.2,24.2,0,0,0,1275,813.66Z"/><path class="cls-1" d="M1359.33,791.08a46.25,46.25,0,1,1,46.25-46.25A46.31,46.31,0,0,1,1359.33,791.08Zm0-81.5a35.25,35.25,0,1,0,35.25,35.25A35.29,35.29,0,0,0,1359.33,709.58Z"/><path class="cls-2" d="M1612.71,1032.79a35.12,35.12,0,1,1,35.12-35.12A35.16,35.16,0,0,1,1612.71,1032.79Zm0-59.24a24.12,24.12,0,1,0,24.12,24.12A24.15,24.15,0,0,0,1612.71,973.55Z"/><path class="cls-2" d="M1019.38,1031.13a47.21,47.21,0,1,1,47.21-47.21A47.26,47.26,0,0,1,1019.38,1031.13Zm0-83.41a36.21,36.21,0,1,0,36.21,36.2A36.24,36.24,0,0,0,1019.38,947.72Z"/><path class="cls-4" d="M815.43,291.42a34.77,34.77,0,1,1,34.76-34.77A34.8,34.8,0,0,1,815.43,291.42Zm0-58.53a23.77,23.77,0,1,0,23.76,23.76A23.79,23.79,0,0,0,815.43,232.89Z"/><path class="cls-1" d="M986.08,241.26a46.19,46.19,0,1,1,46.18-46.19A46.24,46.24,0,0,1,986.08,241.26Zm0-81.37a35.19,35.19,0,1,0,35.18,35.18A35.23,35.23,0,0,0,986.08,159.89Z"/><path class="cls-1" d="M1164.65,382.94a86.21,86.21,0,1,1,86.21-86.21A86.3,86.3,0,0,1,1164.65,382.94Zm0-161.41a75.21,75.21,0,1,0,75.21,75.2A75.28,75.28,0,0,0,1164.65,221.53Z"/><path class="cls-1" d="M1359.33,666.46c-76,0-137.84-61.84-137.84-137.84s61.83-137.84,137.84-137.84,137.84,61.83,137.84,137.84S1435.33,666.46,1359.33,666.46Zm0-264.68a126.84,126.84,0,1,0,126.84,126.84A127,127,0,0,0,1359.33,401.78Z"/><path class="cls-3" d="M1441.56,228.74a36,36,0,1,1,36-36A36.08,36.08,0,0,1,1441.56,228.74Zm0-61.06a25,25,0,1,0,25,25A25.06,25.06,0,0,0,1441.56,167.68Z"/><path class="cls-3" d="M1953.69,620.41a34.17,34.17,0,1,1,34.17-34.17A34.2,34.2,0,0,1,1953.69,620.41Zm0-57.33a23.17,23.17,0,1,0,23.17,23.16A23.19,23.19,0,0,0,1953.69,563.08Z"/><path class="cls-1" d="M1908.36,757.08a47.5,47.5,0,1,1,47.5-47.5A47.56,47.56,0,0,1,1908.36,757.08Zm0-84a36.5,36.5,0,1,0,36.5,36.5A36.54,36.54,0,0,0,1908.36,673.08Z"/><path class="cls-4" d="M2250.69,569.08a85.5,85.5,0,1,1,85.5-85.5A85.6,85.6,0,0,1,2250.69,569.08Zm0-160a74.5,74.5,0,1,0,74.5,74.5A74.58,74.58,0,0,0,2250.69,409.08Z"/><path class="cls-4" d="M2103.36,368.08a35.5,35.5,0,1,1,35.5-35.5A35.54,35.54,0,0,1,2103.36,368.08Zm0-60a24.5,24.5,0,1,0,24.5,24.5A24.53,24.53,0,0,0,2103.36,308.08Z"/><path class="cls-1" d="M1998,296.41a34.84,34.84,0,1,1,34.83-34.83A34.88,34.88,0,0,1,1998,296.41Zm0-58.67a23.84,23.84,0,1,0,23.83,23.84A23.86,23.86,0,0,0,1998,237.74Z"/><path class="cls-1" d="M2107.36,237.74a47.5,47.5,0,1,1,47.5-47.5A47.56,47.56,0,0,1,2107.36,237.74Zm0-84a36.5,36.5,0,1,0,36.5,36.5A36.54,36.54,0,0,0,2107.36,153.74Z"/><path class="cls-4" d="M2242.69,369.74a47.5,47.5,0,1,1,47.5-47.5A47.56,47.56,0,0,1,2242.69,369.74Zm0-84a36.5,36.5,0,1,0,36.5,36.5A36.55,36.55,0,0,0,2242.69,285.74Z"/><path class="cls-1" d="M2358.36,739.08a35.5,35.5,0,1,1,35.5-35.5A35.54,35.54,0,0,1,2358.36,739.08Zm0-60a24.5,24.5,0,1,0,24.5,24.5A24.53,24.53,0,0,0,2358.36,679.08Z"/><path class="cls-2" d="M2136.86,1056.41a47.34,47.34,0,1,1,47.33-47.33A47.39,47.39,0,0,1,2136.86,1056.41Zm0-83.67a36.34,36.34,0,1,0,36.33,36.34A36.37,36.37,0,0,0,2136.86,972.74Z"/><path class="cls-2" d="M2264.19,1090.08a35.34,35.34,0,1,1,35.34-35.34A35.38,35.38,0,0,1,2264.19,1090.08Zm0-59.67a24.34,24.34,0,1,0,24.34,24.33A24.35,24.35,0,0,0,2264.19,1030.41Z"/><path class="cls-4" d="M2464.73,830.33a47.63,47.63,0,1,1,47.63-47.63A47.68,47.68,0,0,1,2464.73,830.33Zm0-84.25a36.63,36.63,0,1,0,36.63,36.62A36.66,36.66,0,0,0,2464.73,746.08Z"/><path class="cls-4" d="M2490,966.39a34.85,34.85,0,1,1,34.85-34.85A34.88,34.88,0,0,1,2490,966.39Zm0-58.69a23.85,23.85,0,1,0,23.85,23.84A23.87,23.87,0,0,0,2490,907.7Z"/><path class="cls-2" d="M2421.36,281.58a46.5,46.5,0,1,1,46.5-46.5A46.55,46.55,0,0,1,2421.36,281.58Zm0-82a35.5,35.5,0,1,0,35.5,35.5A35.53,35.53,0,0,0,2421.36,199.58Z"/><path class="cls-2" d="M2676.11,463.58a34.75,34.75,0,1,1,34.75-34.75A34.79,34.79,0,0,1,2676.11,463.58Zm0-58.5a23.75,23.75,0,1,0,23.75,23.75A23.77,23.77,0,0,0,2676.11,405.08Z"/><path class="cls-1" d="M2781.61,547.08a47.25,47.25,0,1,1,47.25-47.25A47.3,47.3,0,0,1,2781.61,547.08Zm0-83.5a36.25,36.25,0,1,0,36.25,36.25A36.29,36.29,0,0,0,2781.61,463.58Z"/><path class="cls-3" d="M3010.61,725.58a35.25,35.25,0,1,1,35.25-35.25A35.29,35.29,0,0,1,3010.61,725.58Zm0-59.5a24.25,24.25,0,1,0,24.25,24.25A24.27,24.27,0,0,0,3010.61,666.08Z"/><path class="cls-4" d="M2966.86,967.58a36,36,0,1,1,36-36A36,36,0,0,1,2966.86,967.58Zm0-61a25,25,0,1,0,25,25A25,25,0,0,0,2966.86,906.58Z"/><path class="cls-4" d="M2900.61,1077.58a35.25,35.25,0,1,1,35.25-35.25A35.29,35.29,0,0,1,2900.61,1077.58Zm0-59.5a24.25,24.25,0,1,0,24.25,24.25A24.27,24.27,0,0,0,2900.61,1018.08Z"/><path class="cls-1" d="M2869.86,465.89a35.5,35.5,0,1,1,35.5-35.5A35.53,35.53,0,0,1,2869.86,465.89Zm0-60a24.5,24.5,0,1,0,24.5,24.5A24.53,24.53,0,0,0,2869.86,405.89Z"/><path class="cls-1" d="M2998.11,363.58a66.75,66.75,0,1,1,66.75-66.75A66.83,66.83,0,0,1,2998.11,363.58Zm0-122.5a55.75,55.75,0,1,0,55.75,55.75A55.81,55.81,0,0,0,2998.11,241.08Z"/><path class="cls-1" d="M2979.86,616.58a85,85,0,1,1,85-85A85.1,85.1,0,0,1,2979.86,616.58Zm0-159a74,74,0,1,0,74,74A74.08,74.08,0,0,0,2979.86,457.58Z"/><rect class="cls-1" x="260.7" y="315.47" width="11" height="59.72" transform="translate(-166.28 289.85) rotate(-45.06)"/><rect class="cls-2" x="225.9" y="450.14" width="78.25" height="11" transform="translate(-256.29 377.68) rotate(-51.31)"/><rect class="cls-2" x="361.15" y="420.3" width="11" height="73.93" transform="translate(-205.06 328.15) rotate(-38.55)"/><rect class="cls-1" x="297.03" y="679.12" width="40.69" height="11" transform="translate(-253.8 191.47) rotate(-24.32)"/><rect class="cls-3" x="415.52" y="663.26" width="11" height="74.5" transform="translate(-395.9 675.89) rotate(-57.27)"/><rect class="cls-3" x="465.5" y="591.87" width="11" height="101.9" transform="translate(-202.53 216.89) rotate(-21.46)"/><rect class="cls-3" x="560.91" y="674.48" width="65.19" height="11" transform="translate(-307.47 733.46) rotate(-52.28)"/><rect class="cls-1" x="564.04" y="405.07" width="11" height="50.89" transform="translate(-60.82 95.3) rotate(-9.08)"/><rect class="cls-4" x="674.79" y="256.41" width="109.06" height="11" transform="translate(-10.54 31.45) rotate(-2.45)"/><rect class="cls-4" x="888.26" y="238.3" width="11" height="118.25" transform="translate(198.47 932.91) rotate(-60.83)"/><rect class="cls-4" x="769.13" y="319.58" width="78.77" height="11" transform="translate(399.94 1094.78) rotate(-83.94)"/><rect class="cls-2" x="872.65" y="388.33" width="84.7" height="11" transform="translate(-69.87 543.36) rotate(-31.92)"/><rect class="cls-2" x="903.07" y="494.51" width="11" height="55.38" transform="translate(39.19 1107.31) rotate(-63.83)"/><rect class="cls-2" x="808.82" y="599.8" width="130.91" height="11" transform="translate(-153.1 331) rotate(-19.75)"/><rect class="cls-1" x="919.67" y="633.56" width="56.97" height="11" transform="translate(-89.18 1120.04) rotate(-58.86)"/><rect class="cls-1" x="984.17" y="673.51" width="11" height="72.82" transform="translate(171.45 1612.11) rotate(-83.45)"/><rect class="cls-1" x="947.31" y="735.8" width="11" height="76.52" transform="translate(-260.86 589.62) rotate(-30.45)"/><rect class="cls-3" x="523.36" y="844.66" width="11" height="78.03" transform="translate(-66.39 43.28) rotate(-4.41)"/><rect class="cls-2" x="612.43" y="786.13" width="11" height="54.88" transform="translate(-387.82 993.06) rotate(-62.9)"/><rect class="cls-2" x="1050.47" y="939.13" width="72.94" height="11" transform="translate(-334.75 715.35) rotate(-31.83)"/><rect class="cls-1" x="1139.61" y="828.22" width="11" height="33.83" transform="translate(-59.33 86.94) rotate(-4.24)"/><rect class="cls-2" x="1231.45" y="891.62" width="11" height="99.75" transform="translate(-120.42 1699.12) rotate(-66.44)"/><rect class="cls-1" x="1224.02" y="778.04" width="11" height="53.27" transform="translate(-156.39 1293.01) rotate(-52.61)"/><rect class="cls-1" x="1286.49" y="790.52" width="55.17" height="11" transform="translate(-147.98 1268.09) rotate(-49.1)"/><rect class="cls-1" x="1171.59" y="538.08" width="55.21" height="11" transform="translate(-44.3 110.82) rotate(-5.2)"/><rect class="cls-1" x="1080.62" y="443.36" width="141.98" height="11" transform="matrix(0.09, -1, 1, 0.09, 603.07, 1556.46)"/><rect class="cls-2" x="1063.17" y="361.9" width="11" height="182.92" transform="translate(-52.73 753.43) rotate(-37.97)"/><rect class="cls-1" x="1052.27" y="194.29" width="11" height="84.1" transform="translate(339.83 1048.31) rotate(-61.11)"/><rect class="cls-3" x="1362.6" y="238.55" width="72.51" height="11" transform="translate(322.76 1170.53) rotate(-50.62)"/><rect class="cls-4" x="1417.02" y="283.04" width="11" height="69.06" transform="translate(902.32 1679.12) rotate(-81.67)"/><rect class="cls-1" x="1434" y="399.56" width="57.77" height="11" transform="translate(214.7 1268.84) rotate(-50.16)"/><rect class="cls-4" x="1571.99" y="377.23" width="11" height="62" transform="translate(52.37 981.93) rotate(-35.12)"/><rect class="cls-1" x="1485.22" y="475.04" width="99.15" height="11" transform="translate(-73.22 451.93) rotate(-16.37)"/><rect class="cls-4" x="1629.2" y="484.43" width="11" height="56.74" transform="translate(-75.92 607.66) rotate(-20.59)"/><rect class="cls-2" x="1594.16" y="713.94" width="26.19" height="11" transform="translate(8.52 1457.62) rotate(-48.9)"/><rect class="cls-1" x="1426.04" y="728.79" width="11" height="67.13" transform="translate(376.27 1993.97) rotate(-77.45)"/><rect class="cls-2" x="1367.86" y="788.06" width="11" height="95.46" transform="translate(-101.02 194.8) rotate(-7.83)"/><rect class="cls-2" x="735.49" y="702.59" width="83.23" height="11" transform="translate(10.48 1427.5) rotate(-85.52)"/><rect class="cls-1" x="1112.55" y="597.19" width="49.62" height="11" transform="translate(444.94 1687.76) rotate(-85.38)"/><rect class="cls-2" x="1611.25" y="842.33" width="11" height="52.49" transform="translate(-152.84 1355.26) rotate(-43.62)"/><rect class="cls-2" x="1616.91" y="950.31" width="35.14" height="11" transform="translate(49.19 1991.16) rotate(-63.47)"/><rect class="cls-4" x="1680.36" y="873.03" width="53.77" height="11" transform="translate(-192.78 1154.96) rotate(-35.51)"/><rect class="cls-1" x="1817.54" y="758.14" width="70.84" height="11" transform="translate(-2.86 1520.3) rotate(-44.58)"/><rect class="cls-4" x="1736.66" y="718.54" width="11" height="60.65" transform="translate(-152.75 821.21) rotate(-25.45)"/><rect class="cls-1" x="1827.14" y="877.93" width="11" height="42.98" transform="translate(-176.88 1259.05) rotate(-36.29)"/><path class="cls-1" d="M1903.59,1105.58a106.17,106.17,0,1,1,106.16-106.17A106.29,106.29,0,0,1,1903.59,1105.58Zm0-201.34a95.17,95.17,0,1,0,95.16,95.17A95.27,95.27,0,0,0,1903.59,904.24Z"/><rect class="cls-1" x="1964.86" y="894.79" width="87.61" height="11" transform="translate(-49.75 1680.16) rotate(-44.89)"/><rect class="cls-2" x="2201.03" y="1005.39" width="11" height="59.21" transform="translate(481.86 2757.05) rotate(-70.09)"/><rect class="cls-2" x="2265.26" y="992.51" width="62.89" height="11" transform="translate(286.49 2491.29) rotate(-60.09)"/><rect class="cls-1" x="2264.86" y="845.07" width="11" height="45.51" transform="translate(242.85 2208.29) rotate(-54.39)"/><rect class="cls-4" x="2371.59" y="836.14" width="76.71" height="11" transform="translate(136.81 2003.13) rotate(-46.32)"/><rect class="cls-4" x="2474.86" y="824.35" width="11" height="76.42" transform="translate(-104.68 400.2) rotate(-9.03)"/><rect class="cls-4" x="2475.12" y="712.96" width="70.04" height="11" transform="translate(475.86 2355.13) rotate(-54.79)"/><rect class="cls-4" x="2317.58" y="530.95" width="11" height="33.4" transform="translate(302.95 1818.75) rotate(-45.44)"/><rect class="cls-1" x="2442.65" y="554.48" width="11" height="76.69" transform="translate(1649.96 2981.92) rotate(-85.14)"/><rect class="cls-1" x="2341.07" y="646.08" width="44.07" height="11" transform="translate(1578.53 2973.92) rotate(-86.75)"/><rect class="cls-1" x="2564.11" y="420.81" width="11" height="85.53" transform="translate(-35.59 288.28) rotate(-6.38)"/><rect class="cls-2" x="2475.86" y="376.58" width="43.5" height="11"/><rect class="cls-2" x="2396.07" y="292.08" width="43.07" height="11" transform="translate(1980.15 2693.83) rotate(-86.67)"/><rect class="cls-4" x="2135.81" y="323.33" width="62.6" height="11" transform="translate(-15 121.72) rotate(-3.21)"/><rect class="cls-1" x="2023.14" y="225.27" width="51.94" height="11" transform="translate(206.97 1157.39) rotate(-33.13)"/><rect class="cls-1" x="1961.67" y="311.26" width="53.44" height="11" transform="translate(1411.4 2245.78) rotate(-82.4)"/><rect class="cls-3" x="1877.6" y="423.88" width="74.75" height="11" transform="translate(82.68 1132.37) rotate(-33.63)"/><rect class="cls-2" x="1799.61" y="377.81" width="11" height="42.6" transform="matrix(0.98, -0.18, 0.18, 0.98, -42.07, 324.07)"/><rect class="cls-3" x="1749.72" y="539.99" width="39.76" height="11" transform="translate(121.58 1389.93) rotate(-44.26)"/><rect class="cls-3" x="1900.27" y="516.33" width="11" height="64.57" transform="translate(270.02 1669.89) rotate(-50.49)"/><rect class="cls-1" x="1981" y="562.47" width="55.88" height="11" transform="translate(-77.27 646.51) rotate(-17.94)"/><rect class="cls-1" x="1902.99" y="636.97" width="58.41" height="11" transform="translate(686.75 2253.38) rotate(-70.68)"/><rect class="cls-1" x="1974.01" y="701.02" width="11" height="62.01" transform="translate(617.62 2344.35) rotate(-70.11)"/><rect class="cls-1" x="2090.36" y="588.68" width="11" height="63.79" transform="translate(-87.16 510.25) rotate(-13.6)"/><rect class="cls-4" x="2115.74" y="515.35" width="61.4" height="11" transform="translate(-46.29 786.19) rotate(-20.54)"/><rect class="cls-4" x="2237.19" y="364.24" width="11" height="35.33"/><rect class="cls-2" x="2620.63" y="382.27" width="11" height="50.4" transform="translate(1370.5 2749.69) rotate(-70.62)"/><rect class="cls-2" x="2588.41" y="331.92" width="61.64" height="11" transform="translate(449.61 1843.06) rotate(-42.1)"/><rect class="cls-1" x="2671.12" y="534.6" width="79.4" height="11" transform="translate(78.3 1382.78) rotate(-29.02)"/><rect class="cls-1" x="2809.62" y="455.43" width="41.54" height="11" transform="translate(465.7 2083.21) rotate(-43.7)"/><rect class="cls-1" x="2797.02" y="538.97" width="11" height="55.24" transform="translate(-45.62 818.12) rotate(-16.48)"/><rect class="cls-3" x="2929.61" y="630.86" width="11" height="91.43" transform="translate(1673.51 3411.71) rotate(-78.22)"/><rect class="cls-3" x="2949.71" y="737.22" width="61.44" height="11" transform="translate(825.04 2931.08) rotate(-59.43)"/><rect class="cls-4" x="2950.86" y="847.78" width="11" height="53.6" transform="translate(-97.42 451.04) rotate(-8.58)"/><rect class="cls-4" x="2900" y="982.29" width="68.84" height="11" transform="translate(562.04 2977.35) rotate(-58.59)"/><rect class="cls-3" x="2752.61" y="735.25" width="63.79" height="11" transform="translate(860.62 2885.71) rotate(-63.01)"/><rect class="cls-1" x="2943.34" y="398.49" width="92.03" height="11" transform="translate(2391.43 3360.67) rotate(-86.26)"/><rect class="cls-1" x="2902.75" y="242.66" width="11" height="59.5" transform="translate(1847.93 2994.15) rotate(-74.07)"/><rect class="cls-1" x="1353.83" y="660.96" width="11" height="37.95"/><rect class="cls-1" x="603.88" y="536.15" width="11" height="45.62" transform="translate(-183.16 323.02) rotate(-25.95)"/><rect class="cls-1" x="488.9" y="510.59" width="50.81" height="11" transform="translate(-108.95 138.72) rotate(-13.91)"/><rect class="cls-1" x="260.69" y="754.21" width="11" height="62.41" transform="translate(-37.45 13.7) rotate(-2.76)"/><path class="cls-2" d="M318.47,442.21A47.54,47.54,0,1,1,366,394.67,47.59,47.59,0,0,1,318.47,442.21Zm0-84.08A36.54,36.54,0,1,0,355,394.67,36.58,36.58,0,0,0,318.47,358.13Z"/><path class="cls-1" d="M427.52,606.08a67.63,67.63,0,1,1,67.62-67.63A67.71,67.71,0,0,1,427.52,606.08Zm0-124.25a56.63,56.63,0,1,0,56.62,56.62A56.69,56.69,0,0,0,427.52,481.83Z"/><path class="cls-3" d="M365.47,698.5a35.06,35.06,0,1,1,35-35.06A35.1,35.1,0,0,1,365.47,698.5Zm0-59.11a24.06,24.06,0,1,0,24,24.05A24.08,24.08,0,0,0,365.47,639.39Z"/><path class="cls-3" d="M639.72,668.94a47.49,47.49,0,1,1,47.48-47.48A47.53,47.53,0,0,1,639.72,668.94Zm0-84a36.49,36.49,0,1,0,36.48,36.49A36.52,36.52,0,0,0,639.72,585Z"/><path class="cls-4" d="M541.27,413.09c-76.69,0-139.08-62.39-139.08-139.07s62.39-139.08,139.08-139.08S680.34,197.33,680.34,274,618,413.09,541.27,413.09Zm0-267.15A128.08,128.08,0,1,0,669.34,274C669.34,203.4,611.89,145.94,541.27,145.94Z"/><path class="cls-3" d="M519.29,850.28a85.61,85.61,0,1,1,85.6-85.6A85.7,85.7,0,0,1,519.29,850.28Zm0-160.21a74.61,74.61,0,1,0,74.6,74.61A74.69,74.69,0,0,0,519.29,690.07Z"/><path class="cls-2" d="M1153.54,950.91a47.21,47.21,0,1,1,47.21-47.21A47.26,47.26,0,0,1,1153.54,950.91Zm0-83.41a36.21,36.21,0,1,0,36.21,36.2A36.24,36.24,0,0,0,1153.54,867.5Z"/><path class="cls-1" d="M1142.51,583.46a34.69,34.69,0,1,1,34.7-34.69A34.73,34.73,0,0,1,1142.51,583.46Zm0-58.38a23.69,23.69,0,1,0,23.7,23.69A23.71,23.71,0,0,0,1142.51,525.08Z"/><path class="cls-2" d="M986.08,396.08a47.34,47.34,0,1,1,47.33-47.34A47.39,47.39,0,0,1,986.08,396.08Zm0-83.67a36.34,36.34,0,1,0,36.33,36.33A36.37,36.37,0,0,0,986.08,312.41Z"/><path class="cls-4" d="M1345.86,354.74a48,48,0,1,1,48-48A48.05,48.05,0,0,1,1345.86,354.74Zm0-85a37,37,0,1,0,37,37A37,37,0,0,0,1345.86,269.74Z"/><path class="cls-1" d="M1611,491.74a34.17,34.17,0,1,1,34.17-34.16A34.21,34.21,0,0,1,1611,491.74Zm0-57.33a23.17,23.17,0,1,0,23.17,23.17A23.19,23.19,0,0,0,1611,434.41Z"/><path class="cls-3" d="M1827.73,554.83a68.38,68.38,0,1,1,68.38-68.38A68.46,68.46,0,0,1,1827.73,554.83Zm0-125.75a57.38,57.38,0,1,0,57.38,57.37A57.43,57.43,0,0,0,1827.73,429.08Z"/><path class="cls-4" d="M1683.41,738A105.92,105.92,0,1,1,1789.33,632,106,106,0,0,1,1683.41,738Zm0-200.84A94.92,94.92,0,1,0,1778.33,632,95,95,0,0,0,1683.41,537.12Z"/><path class="cls-4" d="M1783.11,899.64a67.75,67.75,0,1,1,67.75-67.75A67.82,67.82,0,0,1,1783.11,899.64Zm0-124.5a56.75,56.75,0,1,0,56.75,56.75A56.82,56.82,0,0,0,1783.11,775.14Z"/><path class="cls-2" d="M1658,945.59a35.12,35.12,0,1,1,35.12-35.12A35.17,35.17,0,0,1,1658,945.59Zm0-59.24a24.12,24.12,0,1,0,24.12,24.12A24.15,24.15,0,0,0,1658,886.35Z"/><path class="cls-1" d="M2138.94,919.25c-76.47,0-138.68-62.21-138.68-138.68s62.21-138.69,138.68-138.69,138.69,62.22,138.69,138.69S2215.41,919.25,2138.94,919.25Zm0-266.37a127.69,127.69,0,1,0,127.69,127.69A127.83,127.83,0,0,0,2138.94,652.88Z"/><path class="cls-2" d="M2343.19,984.41a67.67,67.67,0,1,1,67.67-67.67A67.74,67.74,0,0,1,2343.19,984.41Zm0-124.33a56.67,56.67,0,1,0,56.67,56.66A56.73,56.73,0,0,0,2343.19,860.08Z"/><path class="cls-1" d="M2367.73,632.83a47.38,47.38,0,1,1,47.38-47.38A47.43,47.43,0,0,1,2367.73,632.83Zm0-83.75a36.38,36.38,0,1,0,36.38,36.37A36.41,36.41,0,0,0,2367.73,549.08Z"/><path class="cls-1" d="M2075.78,595.08a47.42,47.42,0,1,1,47.41-47.42A47.48,47.48,0,0,1,2075.78,595.08Zm0-83.84a36.42,36.42,0,1,0,36.41,36.42A36.46,36.46,0,0,0,2075.78,511.24Z"/><path class="cls-2" d="M2412.23,452.08a67,67,0,1,1,67-67A67.08,67.08,0,0,1,2412.23,452.08Zm0-123a56,56,0,1,0,56,56A56.06,56.06,0,0,0,2412.23,329.08Z"/><path class="cls-3" d="M1979,430.74a46.5,46.5,0,1,1,46.5-46.5A46.55,46.55,0,0,1,1979,430.74Zm0-82a35.5,35.5,0,1,0,35.5,35.5A35.54,35.54,0,0,0,1979,348.74Z"/><path class="cls-2" d="M2560.86,426.58a47,47,0,1,1,47-47A47.05,47.05,0,0,1,2560.86,426.58Zm0-83a36,36,0,1,0,36,36A36,36,0,0,0,2560.86,343.58Z"/><path class="cls-2" d="M2746.46,372.7c-76.47,0-138.68-62.21-138.68-138.68S2670,95.34,2746.46,95.34,2885.15,157.55,2885.15,234,2822.93,372.7,2746.46,372.7Zm0-266.36A127.68,127.68,0,1,0,2874.15,234,127.83,127.83,0,0,0,2746.46,106.34Z"/><path class="cls-4" d="M2942.86,853.58a48,48,0,1,1,48-48A48.06,48.06,0,0,1,2942.86,853.58Zm0-85a37,37,0,1,0,37,37A37,37,0,0,0,2942.86,768.58Z"/><path class="cls-3" d="M2827.36,724.58a68.5,68.5,0,1,1,68.5-68.5A68.58,68.58,0,0,1,2827.36,724.58Zm0-126a57.5,57.5,0,1,0,57.5,57.5A57.56,57.56,0,0,0,2827.36,598.58Z"/><path class="cls-1" d="M2584.36,711.58a103.5,103.5,0,1,1,103.5-103.5A103.62,103.62,0,0,1,2584.36,711.58Zm0-196a92.5,92.5,0,1,0,92.5,92.5A92.6,92.6,0,0,0,2584.36,515.58Z"/><path class="cls-2" d="M1544.51,874.21a85.71,85.71,0,1,1,85.71-85.71A85.81,85.81,0,0,1,1544.51,874.21Zm0-160.42a74.71,74.71,0,1,0,74.71,74.71A74.79,74.79,0,0,0,1544.51,713.79Z"/><path class="cls-2" d="M993.9,628.46a67.68,67.68,0,1,1,67.68-67.68A67.76,67.76,0,0,1,993.9,628.46Zm0-124.35a56.68,56.68,0,1,0,56.68,56.67A56.74,56.74,0,0,0,993.9,504.11Z"/><path class="cls-4" d="M1520.52,401.78a69.34,69.34,0,1,1,69.34-69.34A69.41,69.41,0,0,1,1520.52,401.78Zm0-127.67a58.34,58.34,0,1,0,58.34,58.33A58.4,58.4,0,0,0,1520.52,274.11Z"/></svg>